<?xml version="1.0" encoding="utf-8" standalone="no"?>
<!DOCTYPE svg PUBLIC "-//W3C//DTD SVG 1.1//EN"
  "http://www.w3.org/Graphics/SVG/1.1/DTD/svg11.dtd">
<!-- Created with matplotlib (https://matplotlib.org/) -->
<svg height="345.6pt" version="1.1" viewBox="0 0 460.8 345.6" width="460.8pt" xmlns="http://www.w3.org/2000/svg" xmlns:xlink="http://www.w3.org/1999/xlink">
 <defs>
  <style type="text/css">
*{stroke-linecap:butt;stroke-linejoin:round;}
  </style>
 </defs>
 <g id="figure_1">
  <g id="patch_1">
   <path d="M 0 345.6 
L 460.8 345.6 
L 460.8 0 
L 0 0 
z
" style="fill:#ffffff;"/>
  </g>
  <g id="axes_1">
   <g id="patch_2">
    <path d="M 50.87 135.70604 
L 447.48 135.70604 
L 447.48 13.32 
L 50.87 13.32 
z
" style="fill:#ffffff;"/>
   </g>
   <g id="matplotlib.axis_1">
    <g id="xtick_1">
     <g id="line2d_1">
      <path clip-path="url(#pc5393ccf1b)" d="M 68.897727 135.70604 
L 68.897727 13.32 
" style="fill:none;stroke:#b0b0b0;stroke-linecap:square;stroke-width:0.8;"/>
     </g>
     <g id="line2d_2">
      <defs>
       <path d="M 0 0 
L 0 3.5 
" id="ma90ec1a839" style="stroke:#000000;stroke-width:0.8;"/>
      </defs>
      <g>
       <use style="stroke:#000000;stroke-width:0.8;" x="68.897727" xlink:href="#ma90ec1a839" y="135.70604"/>
      </g>
     </g>
     <g id="text_1">
      <!-- 0 -->
      <defs>
       <path d="M 31.78125 66.40625 
Q 24.171875 66.40625 20.328125 58.90625 
Q 16.5 51.421875 16.5 36.375 
Q 16.5 21.390625 20.328125 13.890625 
Q 24.171875 6.390625 31.78125 6.390625 
Q 39.453125 6.390625 43.28125 13.890625 
Q 47.125 21.390625 47.125 36.375 
Q 47.125 51.421875 43.28125 58.90625 
Q 39.453125 66.40625 31.78125 66.40625 
z
M 31.78125 74.21875 
Q 44.046875 74.21875 50.515625 64.515625 
Q 56.984375 54.828125 56.984375 36.375 
Q 56.984375 17.96875 50.515625 8.265625 
Q 44.046875 -1.421875 31.78125 -1.421875 
Q 19.53125 -1.421875 13.0625 8.265625 
Q 6.59375 17.96875 6.59375 36.375 
Q 6.59375 54.828125 13.0625 64.515625 
Q 19.53125 74.21875 31.78125 74.21875 
z
" id="DejaVuSans-48"/>
      </defs>
      <g transform="translate(65.716477 150.304478)scale(0.1 -0.1)">
       <use xlink:href="#DejaVuSans-48"/>
      </g>
     </g>
    </g>
    <g id="xtick_2">
     <g id="line2d_3">
      <path clip-path="url(#pc5393ccf1b)" d="M 141.153147 135.70604 
L 141.153147 13.32 
" style="fill:none;stroke:#b0b0b0;stroke-linecap:square;stroke-width:0.8;"/>
     </g>
     <g id="line2d_4">
      <g>
       <use style="stroke:#000000;stroke-width:0.8;" x="141.153147" xlink:href="#ma90ec1a839" y="135.70604"/>
      </g>
     </g>
     <g id="text_2">
      <!-- 100 -->
      <defs>
       <path d="M 12.40625 8.296875 
L 28.515625 8.296875 
L 28.515625 63.921875 
L 10.984375 60.40625 
L 10.984375 69.390625 
L 28.421875 72.90625 
L 38.28125 72.90625 
L 38.28125 8.296875 
L 54.390625 8.296875 
L 54.390625 0 
L 12.40625 0 
z
" id="DejaVuSans-49"/>
      </defs>
      <g transform="translate(131.609397 150.304478)scale(0.1 -0.1)">
       <use xlink:href="#DejaVuSans-49"/>
       <use x="63.623047" xlink:href="#DejaVuSans-48"/>
       <use x="127.246094" xlink:href="#DejaVuSans-48"/>
      </g>
     </g>
    </g>
    <g id="xtick_3">
     <g id="line2d_5">
      <path clip-path="url(#pc5393ccf1b)" d="M 213.408567 135.70604 
L 213.408567 13.32 
" style="fill:none;stroke:#b0b0b0;stroke-linecap:square;stroke-width:0.8;"/>
     </g>
     <g id="line2d_6">
      <g>
       <use style="stroke:#000000;stroke-width:0.8;" x="213.408567" xlink:href="#ma90ec1a839" y="135.70604"/>
      </g>
     </g>
     <g id="text_3">
      <!-- 200 -->
      <defs>
       <path d="M 19.1875 8.296875 
L 53.609375 8.296875 
L 53.609375 0 
L 7.328125 0 
L 7.328125 8.296875 
Q 12.9375 14.109375 22.625 23.890625 
Q 32.328125 33.6875 34.8125 36.53125 
Q 39.546875 41.84375 41.421875 45.53125 
Q 43.3125 49.21875 43.3125 52.78125 
Q 43.3125 58.59375 39.234375 62.25 
Q 35.15625 65.921875 28.609375 65.921875 
Q 23.96875 65.921875 18.8125 64.3125 
Q 13.671875 62.703125 7.8125 59.421875 
L 7.8125 69.390625 
Q 13.765625 71.78125 18.9375 73 
Q 24.125 74.21875 28.421875 74.21875 
Q 39.75 74.21875 46.484375 68.546875 
Q 53.21875 62.890625 53.21875 53.421875 
Q 53.21875 48.921875 51.53125 44.890625 
Q 49.859375 40.875 45.40625 35.40625 
Q 44.1875 33.984375 37.640625 27.21875 
Q 31.109375 20.453125 19.1875 8.296875 
z
" id="DejaVuSans-50"/>
      </defs>
      <g transform="translate(203.864817 150.304478)scale(0.1 -0.1)">
       <use xlink:href="#DejaVuSans-50"/>
       <use x="63.623047" xlink:href="#DejaVuSans-48"/>
       <use x="127.246094" xlink:href="#DejaVuSans-48"/>
      </g>
     </g>
    </g>
    <g id="xtick_4">
     <g id="line2d_7">
      <path clip-path="url(#pc5393ccf1b)" d="M 285.663987 135.70604 
L 285.663987 13.32 
" style="fill:none;stroke:#b0b0b0;stroke-linecap:square;stroke-width:0.8;"/>
     </g>
     <g id="line2d_8">
      <g>
       <use style="stroke:#000000;stroke-width:0.8;" x="285.663987" xlink:href="#ma90ec1a839" y="135.70604"/>
      </g>
     </g>
     <g id="text_4">
      <!-- 300 -->
      <defs>
       <path d="M 40.578125 39.3125 
Q 47.65625 37.796875 51.625 33 
Q 55.609375 28.21875 55.609375 21.1875 
Q 55.609375 10.40625 48.1875 4.484375 
Q 40.765625 -1.421875 27.09375 -1.421875 
Q 22.515625 -1.421875 17.65625 -0.515625 
Q 12.796875 0.390625 7.625 2.203125 
L 7.625 11.71875 
Q 11.71875 9.328125 16.59375 8.109375 
Q 21.484375 6.890625 26.8125 6.890625 
Q 36.078125 6.890625 40.9375 10.546875 
Q 45.796875 14.203125 45.796875 21.1875 
Q 45.796875 27.640625 41.28125 31.265625 
Q 36.765625 34.90625 28.71875 34.90625 
L 20.21875 34.90625 
L 20.21875 43.015625 
L 29.109375 43.015625 
Q 36.375 43.015625 40.234375 45.921875 
Q 44.09375 48.828125 44.09375 54.296875 
Q 44.09375 59.90625 40.109375 62.90625 
Q 36.140625 65.921875 28.71875 65.921875 
Q 24.65625 65.921875 20.015625 65.03125 
Q 15.375 64.15625 9.8125 62.3125 
L 9.8125 71.09375 
Q 15.4375 72.65625 20.34375 73.4375 
Q 25.25 74.21875 29.59375 74.21875 
Q 40.828125 74.21875 47.359375 69.109375 
Q 53.90625 64.015625 53.90625 55.328125 
Q 53.90625 49.265625 50.4375 45.09375 
Q 46.96875 40.921875 40.578125 39.3125 
z
" id="DejaVuSans-51"/>
      </defs>
      <g transform="translate(276.120237 150.304478)scale(0.1 -0.1)">
       <use xlink:href="#DejaVuSans-51"/>
       <use x="63.623047" xlink:href="#DejaVuSans-48"/>
       <use x="127.246094" xlink:href="#DejaVuSans-48"/>
      </g>
     </g>
    </g>
    <g id="xtick_5">
     <g id="line2d_9">
      <path clip-path="url(#pc5393ccf1b)" d="M 357.919407 135.70604 
L 357.919407 13.32 
" style="fill:none;stroke:#b0b0b0;stroke-linecap:square;stroke-width:0.8;"/>
     </g>
     <g id="line2d_10">
      <g>
       <use style="stroke:#000000;stroke-width:0.8;" x="357.919407" xlink:href="#ma90ec1a839" y="135.70604"/>
      </g>
     </g>
     <g id="text_5">
      <!-- 400 -->
      <defs>
       <path d="M 37.796875 64.3125 
L 12.890625 25.390625 
L 37.796875 25.390625 
z
M 35.203125 72.90625 
L 47.609375 72.90625 
L 47.609375 25.390625 
L 58.015625 25.390625 
L 58.015625 17.1875 
L 47.609375 17.1875 
L 47.609375 0 
L 37.796875 0 
L 37.796875 17.1875 
L 4.890625 17.1875 
L 4.890625 26.703125 
z
" id="DejaVuSans-52"/>
      </defs>
      <g transform="translate(348.375657 150.304478)scale(0.1 -0.1)">
       <use xlink:href="#DejaVuSans-52"/>
       <use x="63.623047" xlink:href="#DejaVuSans-48"/>
       <use x="127.246094" xlink:href="#DejaVuSans-48"/>
      </g>
     </g>
    </g>
    <g id="xtick_6">
     <g id="line2d_11">
      <path clip-path="url(#pc5393ccf1b)" d="M 430.174827 135.70604 
L 430.174827 13.32 
" style="fill:none;stroke:#b0b0b0;stroke-linecap:square;stroke-width:0.8;"/>
     </g>
     <g id="line2d_12">
      <g>
       <use style="stroke:#000000;stroke-width:0.8;" x="430.174827" xlink:href="#ma90ec1a839" y="135.70604"/>
      </g>
     </g>
     <g id="text_6">
      <!-- 500 -->
      <defs>
       <path d="M 10.796875 72.90625 
L 49.515625 72.90625 
L 49.515625 64.59375 
L 19.828125 64.59375 
L 19.828125 46.734375 
Q 21.96875 47.46875 24.109375 47.828125 
Q 26.265625 48.1875 28.421875 48.1875 
Q 40.625 48.1875 47.75 41.5 
Q 54.890625 34.8125 54.890625 23.390625 
Q 54.890625 11.625 47.5625 5.09375 
Q 40.234375 -1.421875 26.90625 -1.421875 
Q 22.3125 -1.421875 17.546875 -0.640625 
Q 12.796875 0.140625 7.71875 1.703125 
L 7.71875 11.625 
Q 12.109375 9.234375 16.796875 8.0625 
Q 21.484375 6.890625 26.703125 6.890625 
Q 35.15625 6.890625 40.078125 11.328125 
Q 45.015625 15.765625 45.015625 23.390625 
Q 45.015625 31 40.078125 35.4375 
Q 35.15625 39.890625 26.703125 39.890625 
Q 22.75 39.890625 18.8125 39.015625 
Q 14.890625 38.140625 10.796875 36.28125 
z
" id="DejaVuSans-53"/>
      </defs>
      <g transform="translate(420.631077 150.304478)scale(0.1 -0.1)">
       <use xlink:href="#DejaVuSans-53"/>
       <use x="63.623047" xlink:href="#DejaVuSans-48"/>
       <use x="127.246094" xlink:href="#DejaVuSans-48"/>
      </g>
     </g>
    </g>
    <g id="text_7">
     <!-- episodes -->
     <defs>
      <path d="M 56.203125 29.59375 
L 56.203125 25.203125 
L 14.890625 25.203125 
Q 15.484375 15.921875 20.484375 11.0625 
Q 25.484375 6.203125 34.421875 6.203125 
Q 39.59375 6.203125 44.453125 7.46875 
Q 49.3125 8.734375 54.109375 11.28125 
L 54.109375 2.78125 
Q 49.265625 0.734375 44.1875 -0.34375 
Q 39.109375 -1.421875 33.890625 -1.421875 
Q 20.796875 -1.421875 13.15625 6.1875 
Q 5.515625 13.8125 5.515625 26.8125 
Q 5.515625 40.234375 12.765625 48.109375 
Q 20.015625 56 32.328125 56 
Q 43.359375 56 49.78125 48.890625 
Q 56.203125 41.796875 56.203125 29.59375 
z
M 47.21875 32.234375 
Q 47.125 39.59375 43.09375 43.984375 
Q 39.0625 48.390625 32.421875 48.390625 
Q 24.90625 48.390625 20.390625 44.140625 
Q 15.875 39.890625 15.1875 32.171875 
z
" id="DejaVuSans-101"/>
      <path d="M 18.109375 8.203125 
L 18.109375 -20.796875 
L 9.078125 -20.796875 
L 9.078125 54.6875 
L 18.109375 54.6875 
L 18.109375 46.390625 
Q 20.953125 51.265625 25.265625 53.625 
Q 29.59375 56 35.59375 56 
Q 45.5625 56 51.78125 48.09375 
Q 58.015625 40.1875 58.015625 27.296875 
Q 58.015625 14.40625 51.78125 6.484375 
Q 45.5625 -1.421875 35.59375 -1.421875 
Q 29.59375 -1.421875 25.265625 0.953125 
Q 20.953125 3.328125 18.109375 8.203125 
z
M 48.6875 27.296875 
Q 48.6875 37.203125 44.609375 42.84375 
Q 40.53125 48.484375 33.40625 48.484375 
Q 26.265625 48.484375 22.1875 42.84375 
Q 18.109375 37.203125 18.109375 27.296875 
Q 18.109375 17.390625 22.1875 11.75 
Q 26.265625 6.109375 33.40625 6.109375 
Q 40.53125 6.109375 44.609375 11.75 
Q 48.6875 17.390625 48.6875 27.296875 
z
" id="DejaVuSans-112"/>
      <path d="M 9.421875 54.6875 
L 18.40625 54.6875 
L 18.40625 0 
L 9.421875 0 
z
M 9.421875 75.984375 
L 18.40625 75.984375 
L 18.40625 64.59375 
L 9.421875 64.59375 
z
" id="DejaVuSans-105"/>
      <path d="M 44.28125 53.078125 
L 44.28125 44.578125 
Q 40.484375 46.53125 36.375 47.5 
Q 32.28125 48.484375 27.875 48.484375 
Q 21.1875 48.484375 17.84375 46.4375 
Q 14.5 44.390625 14.5 40.28125 
Q 14.5 37.15625 16.890625 35.375 
Q 19.28125 33.59375 26.515625 31.984375 
L 29.59375 31.296875 
Q 39.15625 29.25 43.1875 25.515625 
Q 47.21875 21.78125 47.21875 15.09375 
Q 47.21875 7.46875 41.1875 3.015625 
Q 35.15625 -1.421875 24.609375 -1.421875 
Q 20.21875 -1.421875 15.453125 -0.5625 
Q 10.6875 0.296875 5.421875 2 
L 5.421875 11.28125 
Q 10.40625 8.6875 15.234375 7.390625 
Q 20.0625 6.109375 24.8125 6.109375 
Q 31.15625 6.109375 34.5625 8.28125 
Q 37.984375 10.453125 37.984375 14.40625 
Q 37.984375 18.0625 35.515625 20.015625 
Q 33.0625 21.96875 24.703125 23.78125 
L 21.578125 24.515625 
Q 13.234375 26.265625 9.515625 29.90625 
Q 5.8125 33.546875 5.8125 39.890625 
Q 5.8125 47.609375 11.28125 51.796875 
Q 16.75 56 26.8125 56 
Q 31.78125 56 36.171875 55.265625 
Q 40.578125 54.546875 44.28125 53.078125 
z
" id="DejaVuSans-115"/>
      <path d="M 30.609375 48.390625 
Q 23.390625 48.390625 19.1875 42.75 
Q 14.984375 37.109375 14.984375 27.296875 
Q 14.984375 17.484375 19.15625 11.84375 
Q 23.34375 6.203125 30.609375 6.203125 
Q 37.796875 6.203125 41.984375 11.859375 
Q 46.1875 17.53125 46.1875 27.296875 
Q 46.1875 37.015625 41.984375 42.703125 
Q 37.796875 48.390625 30.609375 48.390625 
z
M 30.609375 56 
Q 42.328125 56 49.015625 48.375 
Q 55.71875 40.765625 55.71875 27.296875 
Q 55.71875 13.875 49.015625 6.21875 
Q 42.328125 -1.421875 30.609375 -1.421875 
Q 18.84375 -1.421875 12.171875 6.21875 
Q 5.515625 13.875 5.515625 27.296875 
Q 5.515625 40.765625 12.171875 48.375 
Q 18.84375 56 30.609375 56 
z
" id="DejaVuSans-111"/>
      <path d="M 45.40625 46.390625 
L 45.40625 75.984375 
L 54.390625 75.984375 
L 54.390625 0 
L 45.40625 0 
L 45.40625 8.203125 
Q 42.578125 3.328125 38.25 0.953125 
Q 33.9375 -1.421875 27.875 -1.421875 
Q 17.96875 -1.421875 11.734375 6.484375 
Q 5.515625 14.40625 5.515625 27.296875 
Q 5.515625 40.1875 11.734375 48.09375 
Q 17.96875 56 27.875 56 
Q 33.9375 56 38.25 53.625 
Q 42.578125 51.265625 45.40625 46.390625 
z
M 14.796875 27.296875 
Q 14.796875 17.390625 18.875 11.75 
Q 22.953125 6.109375 30.078125 6.109375 
Q 37.203125 6.109375 41.296875 11.75 
Q 45.40625 17.390625 45.40625 27.296875 
Q 45.40625 37.203125 41.296875 42.84375 
Q 37.203125 48.484375 30.078125 48.484375 
Q 22.953125 48.484375 18.875 42.84375 
Q 14.796875 37.203125 14.796875 27.296875 
z
" id="DejaVuSans-100"/>
     </defs>
     <g transform="translate(227.015625 163.982603)scale(0.1 -0.1)">
      <use xlink:href="#DejaVuSans-101"/>
      <use x="61.523438" xlink:href="#DejaVuSans-112"/>
      <use x="125" xlink:href="#DejaVuSans-105"/>
      <use x="152.783203" xlink:href="#DejaVuSans-115"/>
      <use x="204.882812" xlink:href="#DejaVuSans-111"/>
      <use x="266.064453" xlink:href="#DejaVuSans-100"/>
      <use x="329.541016" xlink:href="#DejaVuSans-101"/>
      <use x="391.064453" xlink:href="#DejaVuSans-115"/>
     </g>
    </g>
   </g>
   <g id="matplotlib.axis_2">
    <g id="ytick_1">
     <g id="line2d_13">
      <path clip-path="url(#pc5393ccf1b)" d="M 50.87 116.954391 
L 447.48 116.954391 
" style="fill:none;stroke:#b0b0b0;stroke-linecap:square;stroke-width:0.8;"/>
     </g>
     <g id="line2d_14">
      <defs>
       <path d="M 0 0 
L -3.5 0 
" id="m06de74c2ef" style="stroke:#000000;stroke-width:0.8;"/>
      </defs>
      <g>
       <use style="stroke:#000000;stroke-width:0.8;" x="50.87" xlink:href="#m06de74c2ef" y="116.954391"/>
      </g>
     </g>
     <g id="text_8">
      <!-- 25 -->
      <g transform="translate(31.145 120.753609)scale(0.1 -0.1)">
       <use xlink:href="#DejaVuSans-50"/>
       <use x="63.623047" xlink:href="#DejaVuSans-53"/>
      </g>
     </g>
    </g>
    <g id="ytick_2">
     <g id="line2d_15">
      <path clip-path="url(#pc5393ccf1b)" d="M 50.87 94.107739 
L 447.48 94.107739 
" style="fill:none;stroke:#b0b0b0;stroke-linecap:square;stroke-width:0.8;"/>
     </g>
     <g id="line2d_16">
      <g>
       <use style="stroke:#000000;stroke-width:0.8;" x="50.87" xlink:href="#m06de74c2ef" y="94.107739"/>
      </g>
     </g>
     <g id="text_9">
      <!-- 50 -->
      <g transform="translate(31.145 97.906958)scale(0.1 -0.1)">
       <use xlink:href="#DejaVuSans-53"/>
       <use x="63.623047" xlink:href="#DejaVuSans-48"/>
      </g>
     </g>
    </g>
    <g id="ytick_3">
     <g id="line2d_17">
      <path clip-path="url(#pc5393ccf1b)" d="M 50.87 71.261087 
L 447.48 71.261087 
" style="fill:none;stroke:#b0b0b0;stroke-linecap:square;stroke-width:0.8;"/>
     </g>
     <g id="line2d_18">
      <g>
       <use style="stroke:#000000;stroke-width:0.8;" x="50.87" xlink:href="#m06de74c2ef" y="71.261087"/>
      </g>
     </g>
     <g id="text_10">
      <!-- 75 -->
      <defs>
       <path d="M 8.203125 72.90625 
L 55.078125 72.90625 
L 55.078125 68.703125 
L 28.609375 0 
L 18.3125 0 
L 43.21875 64.59375 
L 8.203125 64.59375 
z
" id="DejaVuSans-55"/>
      </defs>
      <g transform="translate(31.145 75.060306)scale(0.1 -0.1)">
       <use xlink:href="#DejaVuSans-55"/>
       <use x="63.623047" xlink:href="#DejaVuSans-53"/>
      </g>
     </g>
    </g>
    <g id="ytick_4">
     <g id="line2d_19">
      <path clip-path="url(#pc5393ccf1b)" d="M 50.87 48.414435 
L 447.48 48.414435 
" style="fill:none;stroke:#b0b0b0;stroke-linecap:square;stroke-width:0.8;"/>
     </g>
     <g id="line2d_20">
      <g>
       <use style="stroke:#000000;stroke-width:0.8;" x="50.87" xlink:href="#m06de74c2ef" y="48.414435"/>
      </g>
     </g>
     <g id="text_11">
      <!-- 100 -->
      <g transform="translate(24.7825 52.213654)scale(0.1 -0.1)">
       <use xlink:href="#DejaVuSans-49"/>
       <use x="63.623047" xlink:href="#DejaVuSans-48"/>
       <use x="127.246094" xlink:href="#DejaVuSans-48"/>
      </g>
     </g>
    </g>
    <g id="ytick_5">
     <g id="line2d_21">
      <path clip-path="url(#pc5393ccf1b)" d="M 50.87 25.567783 
L 447.48 25.567783 
" style="fill:none;stroke:#b0b0b0;stroke-linecap:square;stroke-width:0.8;"/>
     </g>
     <g id="line2d_22">
      <g>
       <use style="stroke:#000000;stroke-width:0.8;" x="50.87" xlink:href="#m06de74c2ef" y="25.567783"/>
      </g>
     </g>
     <g id="text_12">
      <!-- 125 -->
      <g transform="translate(24.7825 29.367002)scale(0.1 -0.1)">
       <use xlink:href="#DejaVuSans-49"/>
       <use x="63.623047" xlink:href="#DejaVuSans-50"/>
       <use x="127.246094" xlink:href="#DejaVuSans-53"/>
      </g>
     </g>
    </g>
    <g id="text_13">
     <!-- makespan metric -->
     <defs>
      <path d="M 52 44.1875 
Q 55.375 50.25 60.0625 53.125 
Q 64.75 56 71.09375 56 
Q 79.640625 56 84.28125 50.015625 
Q 88.921875 44.046875 88.921875 33.015625 
L 88.921875 0 
L 79.890625 0 
L 79.890625 32.71875 
Q 79.890625 40.578125 77.09375 44.375 
Q 74.3125 48.1875 68.609375 48.1875 
Q 61.625 48.1875 57.5625 43.546875 
Q 53.515625 38.921875 53.515625 30.90625 
L 53.515625 0 
L 44.484375 0 
L 44.484375 32.71875 
Q 44.484375 40.625 41.703125 44.40625 
Q 38.921875 48.1875 33.109375 48.1875 
Q 26.21875 48.1875 22.15625 43.53125 
Q 18.109375 38.875 18.109375 30.90625 
L 18.109375 0 
L 9.078125 0 
L 9.078125 54.6875 
L 18.109375 54.6875 
L 18.109375 46.1875 
Q 21.1875 51.21875 25.484375 53.609375 
Q 29.78125 56 35.6875 56 
Q 41.65625 56 45.828125 52.96875 
Q 50 49.953125 52 44.1875 
z
" id="DejaVuSans-109"/>
      <path d="M 34.28125 27.484375 
Q 23.390625 27.484375 19.1875 25 
Q 14.984375 22.515625 14.984375 16.5 
Q 14.984375 11.71875 18.140625 8.90625 
Q 21.296875 6.109375 26.703125 6.109375 
Q 34.1875 6.109375 38.703125 11.40625 
Q 43.21875 16.703125 43.21875 25.484375 
L 43.21875 27.484375 
z
M 52.203125 31.203125 
L 52.203125 0 
L 43.21875 0 
L 43.21875 8.296875 
Q 40.140625 3.328125 35.546875 0.953125 
Q 30.953125 -1.421875 24.3125 -1.421875 
Q 15.921875 -1.421875 10.953125 3.296875 
Q 6 8.015625 6 15.921875 
Q 6 25.140625 12.171875 29.828125 
Q 18.359375 34.515625 30.609375 34.515625 
L 43.21875 34.515625 
L 43.21875 35.40625 
Q 43.21875 41.609375 39.140625 45 
Q 35.0625 48.390625 27.6875 48.390625 
Q 23 48.390625 18.546875 47.265625 
Q 14.109375 46.140625 10.015625 43.890625 
L 10.015625 52.203125 
Q 14.9375 54.109375 19.578125 55.046875 
Q 24.21875 56 28.609375 56 
Q 40.484375 56 46.34375 49.84375 
Q 52.203125 43.703125 52.203125 31.203125 
z
" id="DejaVuSans-97"/>
      <path d="M 9.078125 75.984375 
L 18.109375 75.984375 
L 18.109375 31.109375 
L 44.921875 54.6875 
L 56.390625 54.6875 
L 27.390625 29.109375 
L 57.625 0 
L 45.90625 0 
L 18.109375 26.703125 
L 18.109375 0 
L 9.078125 0 
z
" id="DejaVuSans-107"/>
      <path d="M 54.890625 33.015625 
L 54.890625 0 
L 45.90625 0 
L 45.90625 32.71875 
Q 45.90625 40.484375 42.875 44.328125 
Q 39.84375 48.1875 33.796875 48.1875 
Q 26.515625 48.1875 22.3125 43.546875 
Q 18.109375 38.921875 18.109375 30.90625 
L 18.109375 0 
L 9.078125 0 
L 9.078125 54.6875 
L 18.109375 54.6875 
L 18.109375 46.1875 
Q 21.34375 51.125 25.703125 53.5625 
Q 30.078125 56 35.796875 56 
Q 45.21875 56 50.046875 50.171875 
Q 54.890625 44.34375 54.890625 33.015625 
z
" id="DejaVuSans-110"/>
      <path id="DejaVuSans-32"/>
      <path d="M 18.3125 70.21875 
L 18.3125 54.6875 
L 36.8125 54.6875 
L 36.8125 47.703125 
L 18.3125 47.703125 
L 18.3125 18.015625 
Q 18.3125 11.328125 20.140625 9.421875 
Q 21.96875 7.515625 27.59375 7.515625 
L 36.8125 7.515625 
L 36.8125 0 
L 27.59375 0 
Q 17.1875 0 13.234375 3.875 
Q 9.28125 7.765625 9.28125 18.015625 
L 9.28125 47.703125 
L 2.6875 47.703125 
L 2.6875 54.6875 
L 9.28125 54.6875 
L 9.28125 70.21875 
z
" id="DejaVuSans-116"/>
      <path d="M 41.109375 46.296875 
Q 39.59375 47.171875 37.8125 47.578125 
Q 36.03125 48 33.890625 48 
Q 26.265625 48 22.1875 43.046875 
Q 18.109375 38.09375 18.109375 28.8125 
L 18.109375 0 
L 9.078125 0 
L 9.078125 54.6875 
L 18.109375 54.6875 
L 18.109375 46.1875 
Q 20.953125 51.171875 25.484375 53.578125 
Q 30.03125 56 36.53125 56 
Q 37.453125 56 38.578125 55.875 
Q 39.703125 55.765625 41.0625 55.515625 
z
" id="DejaVuSans-114"/>
      <path d="M 48.78125 52.59375 
L 48.78125 44.1875 
Q 44.96875 46.296875 41.140625 47.34375 
Q 37.3125 48.390625 33.40625 48.390625 
Q 24.65625 48.390625 19.8125 42.84375 
Q 14.984375 37.3125 14.984375 27.296875 
Q 14.984375 17.28125 19.8125 11.734375 
Q 24.65625 6.203125 33.40625 6.203125 
Q 37.3125 6.203125 41.140625 7.25 
Q 44.96875 8.296875 48.78125 10.40625 
L 48.78125 2.09375 
Q 45.015625 0.34375 40.984375 -0.53125 
Q 36.96875 -1.421875 32.421875 -1.421875 
Q 20.0625 -1.421875 12.78125 6.34375 
Q 5.515625 14.109375 5.515625 27.296875 
Q 5.515625 40.671875 12.859375 48.328125 
Q 20.21875 56 33.015625 56 
Q 37.15625 56 41.109375 55.140625 
Q 45.0625 54.296875 48.78125 52.59375 
z
" id="DejaVuSans-99"/>
     </defs>
     <g transform="translate(18.702813 118.118489)rotate(-90)scale(0.1 -0.1)">
      <use xlink:href="#DejaVuSans-109"/>
      <use x="97.412109" xlink:href="#DejaVuSans-97"/>
      <use x="158.691406" xlink:href="#DejaVuSans-107"/>
      <use x="216.554688" xlink:href="#DejaVuSans-101"/>
      <use x="278.078125" xlink:href="#DejaVuSans-115"/>
      <use x="330.177734" xlink:href="#DejaVuSans-112"/>
      <use x="393.654297" xlink:href="#DejaVuSans-97"/>
      <use x="454.933594" xlink:href="#DejaVuSans-110"/>
      <use x="518.3125" xlink:href="#DejaVuSans-32"/>
      <use x="550.099609" xlink:href="#DejaVuSans-109"/>
      <use x="647.511719" xlink:href="#DejaVuSans-101"/>
      <use x="709.035156" xlink:href="#DejaVuSans-116"/>
      <use x="748.244141" xlink:href="#DejaVuSans-114"/>
      <use x="789.357422" xlink:href="#DejaVuSans-105"/>
      <use x="817.140625" xlink:href="#DejaVuSans-99"/>
     </g>
    </g>
   </g>
   <g id="line2d_23">
    <path clip-path="url(#pc5393ccf1b)" d="M 68.897727 107.705237 
L 69.620281 62.129801 
L 70.342836 71.69076 
L 71.06539 111.470566 
L 71.787944 97.763173 
L 72.510498 95.489633 
L 73.233052 79.556575 
L 73.955607 96.079463 
L 74.678161 95.93439 
L 75.400715 105.4326 
L 76.123269 59.392216 
L 76.845823 99.494423 
L 77.568378 71.263074 
L 78.290932 30.76285 
L 79.013486 88.885666 
L 79.73604 87.635746 
L 80.458594 71.633611 
L 81.181149 70.0986 
L 81.903703 70.347221 
L 82.626257 82.395689 
L 83.348811 62.118663 
L 84.071365 89.530457 
L 84.79392 68.755878 
L 85.516474 79.752245 
L 86.239028 66.344993 
L 86.961582 97.992735 
L 87.684136 90.957972 
L 88.406691 56.68674 
L 89.129245 42.193995 
L 89.851799 42.811326 
L 90.574353 42.834324 
L 91.296907 72.346565 
L 92.019462 53.451926 
L 92.742016 82.196932 
L 93.46457 60.735814 
L 94.187124 77.369439 
L 94.909678 74.764875 
L 95.632233 70.816027 
L 96.354787 70.469421 
L 97.077341 74.914922 
L 97.799895 65.213265 
L 98.522449 62.299184 
L 99.245004 75.625871 
L 99.967558 33.665986 
L 100.690112 52.198573 
L 101.412666 77.775176 
L 102.13522 95.101251 
L 102.857775 57.564796 
L 103.580329 103.240448 
L 104.302883 101.721894 
L 105.025437 81.95573 
L 105.747991 40.109183 
L 106.470546 64.085852 
L 107.1931 98.185527 
L 108.638208 71.226283 
L 109.360762 50.449324 
L 110.083317 43.646753 
L 110.805871 91.832903 
L 111.528425 50.239243 
L 112.250979 85.881246 
L 112.973533 80.792102 
L 113.696088 49.319376 
L 114.418642 55.917197 
L 115.141196 103.565614 
L 115.86375 55.690779 
L 116.586304 88.434542 
L 117.308859 82.401588 
L 118.031413 50.727593 
L 118.753967 73.161475 
L 119.476521 77.88869 
L 120.199075 80.915533 
L 120.92163 75.977804 
L 121.644184 26.737438 
L 122.366738 107.617267 
L 123.089292 102.044131 
L 123.811846 40.07239 
L 124.534401 38.756504 
L 125.256955 30.910283 
L 126.702063 97.964399 
L 127.424617 74.031598 
L 128.147172 35.626312 
L 128.869726 102.909663 
L 129.59228 53.630735 
L 130.314834 48.291769 
L 131.037388 40.812213 
L 131.759943 41.533656 
L 132.482497 83.530128 
L 133.205051 38.300288 
L 133.927605 31.882796 
L 134.650159 37.90675 
L 135.372714 76.794274 
L 136.095268 63.618989 
L 136.817822 28.060854 
L 137.540376 32.937129 
L 138.26293 67.385672 
L 138.985485 58.28825 
L 139.708039 40.339087 
L 140.430593 43.983191 
L 141.153147 48.838052 
L 141.875701 41.658524 
L 142.598256 54.473382 
L 143.32081 46.790873 
L 144.043364 53.442956 
L 144.765918 50.980765 
L 145.488472 55.983214 
L 146.211027 75.350141 
L 146.933581 38.727996 
L 147.656135 38.371481 
L 148.378689 40.849782 
L 149.101243 41.223072 
L 149.823798 22.920481 
L 150.546352 39.792709 
L 151.268906 43.526307 
L 151.99146 48.954399 
L 152.714014 71.935248 
L 153.436569 37.519441 
L 154.159123 29.37473 
L 154.881677 39.838143 
L 155.604231 39.510236 
L 156.326785 32.642561 
L 157.04934 34.264685 
L 158.494448 49.937346 
L 159.217002 37.823583 
L 159.939556 79.386743 
L 160.662111 34.380558 
L 161.384665 45.341577 
L 162.107219 24.824419 
L 162.829773 59.956241 
L 163.552327 45.059944 
L 164.274882 40.342877 
L 164.997436 65.116343 
L 165.71999 40.559014 
L 166.442544 50.341707 
L 167.165098 39.370466 
L 167.887653 24.120057 
L 168.610207 28.086281 
L 169.332761 39.558398 
L 170.055315 27.619251 
L 170.777869 24.345967 
L 171.500424 37.676822 
L 172.222978 35.029238 
L 172.945532 26.274181 
L 173.668086 42.871649 
L 174.39064 68.381889 
L 175.113195 36.655249 
L 176.558303 26.505069 
L 177.280857 23.255373 
L 178.003411 33.792578 
L 178.725966 66.15216 
L 179.44852 27.804586 
L 180.171074 42.31863 
L 180.893628 31.860152 
L 181.616182 32.664196 
L 182.338737 26.010594 
L 183.061291 51.587014 
L 183.783845 56.158798 
L 184.506399 28.647788 
L 185.228953 43.942494 
L 185.951508 44.686564 
L 186.674062 41.317362 
L 187.396616 33.169584 
L 188.11917 23.643757 
L 188.841724 28.369898 
L 189.564279 30.605175 
L 190.286833 46.573622 
L 191.009387 41.019541 
L 191.731941 37.233613 
L 192.454495 49.799381 
L 193.17705 28.295424 
L 193.899604 32.933899 
L 194.622158 48.601493 
L 195.344712 66.687441 
L 196.067266 25.844787 
L 196.789821 50.82465 
L 197.512375 30.691987 
L 198.234929 36.760014 
L 198.957483 38.026684 
L 199.680037 32.415568 
L 200.402592 29.04105 
L 201.125146 43.392126 
L 201.8477 49.386628 
L 202.570254 31.488384 
L 203.292808 35.652061 
L 204.015363 45.73087 
L 204.737917 59.105114 
L 205.460471 41.999348 
L 206.183025 21.62731 
L 206.905579 24.233286 
L 207.628134 69.341465 
L 208.350688 26.288265 
L 209.073242 72.785373 
L 209.795796 36.205677 
L 210.51835 23.975337 
L 211.240905 39.050224 
L 211.963459 23.584927 
L 212.686013 42.926864 
L 213.408567 37.013075 
L 214.131121 60.82796 
L 214.853676 41.122891 
L 215.57623 73.93448 
L 217.021338 39.098968 
L 217.743892 30.257357 
L 218.466447 35.762712 
L 219.911555 40.954606 
L 220.634109 31.960002 
L 221.356663 35.114759 
L 222.079218 112.885092 
L 222.801772 26.975028 
L 223.524326 38.081545 
L 224.24688 29.191875 
L 224.969434 32.22562 
L 226.414543 31.607533 
L 227.137097 23.642537 
L 227.859651 30.928649 
L 228.582205 50.548219 
L 229.30476 41.686988 
L 230.027314 42.943704 
L 230.749868 25.115754 
L 231.472422 44.061805 
L 232.194976 48.236936 
L 232.917531 27.715072 
L 233.640085 36.540139 
L 234.362639 23.208169 
L 235.085193 26.707152 
L 235.807747 27.769529 
L 236.530302 44.985411 
L 237.252856 41.246912 
L 237.97541 25.431555 
L 238.697964 47.051122 
L 239.420518 32.842339 
L 240.143073 29.224204 
L 240.865627 35.886492 
L 241.588181 34.80381 
L 242.310735 43.05468 
L 243.033289 29.621034 
L 243.755844 25.181936 
L 244.478398 23.309433 
L 245.200952 30.406795 
L 245.923506 26.792757 
L 246.64606 21.868303 
L 247.368615 21.316664 
L 248.091169 36.681578 
L 248.813723 29.034062 
L 249.536277 27.096373 
L 250.258831 26.548034 
L 250.981385 27.15986 
L 251.70394 47.998842 
L 252.426494 39.978945 
L 253.149048 22.99703 
L 253.871602 38.573228 
L 254.594156 28.005307 
L 255.316711 23.789827 
L 256.039265 32.140736 
L 256.761819 28.67121 
L 257.484373 27.58734 
L 258.206927 30.047875 
L 258.929482 25.374619 
L 259.652036 41.334448 
L 260.37459 41.526682 
L 261.097144 22.412717 
L 261.819698 34.720493 
L 262.542253 24.848002 
L 263.264807 46.182545 
L 264.709915 28.062364 
L 265.432469 25.74181 
L 266.155024 27.659232 
L 266.877578 18.883002 
L 267.600132 47.011757 
L 268.322686 30.055522 
L 269.04524 24.935895 
L 269.767795 24.935752 
L 270.490349 27.168959 
L 271.212903 26.762615 
L 271.935457 43.176181 
L 272.658011 22.250568 
L 273.380566 26.810325 
L 274.10312 34.578052 
L 274.825674 32.805634 
L 275.548228 41.554183 
L 276.270782 56.102629 
L 276.993337 26.545775 
L 277.715891 51.339959 
L 278.438445 22.336892 
L 279.160999 24.794722 
L 279.883553 24.60817 
L 280.606108 33.387294 
L 281.328662 25.203594 
L 282.051216 44.742408 
L 282.77377 23.010107 
L 283.496324 55.809288 
L 284.218879 23.273804 
L 284.941433 35.501655 
L 285.663987 34.30559 
L 286.386541 29.395782 
L 287.109095 20.418378 
L 287.83165 39.055636 
L 288.554204 26.716949 
L 289.276758 48.384511 
L 289.999312 27.012899 
L 290.721866 24.756729 
L 291.444421 69.998712 
L 292.166975 23.493085 
L 293.612083 27.757 
L 294.334637 22.711091 
L 295.057192 24.856489 
L 295.779746 26.396745 
L 297.224854 35.189614 
L 297.947408 28.333387 
L 298.669963 30.011021 
L 299.392517 34.434017 
L 300.115071 25.532498 
L 300.837625 113.082933 
L 301.560179 31.943774 
L 302.282734 39.896289 
L 303.005288 24.538663 
L 303.727842 27.444671 
L 304.450396 23.331384 
L 305.17295 21.656175 
L 305.895505 71.14194 
L 306.618059 62.638625 
L 307.340613 26.690278 
L 308.063167 20.995465 
L 308.785721 27.293584 
L 309.508276 27.535814 
L 310.23083 22.112585 
L 310.953384 35.035239 
L 311.675938 25.639963 
L 312.398492 26.700123 
L 313.121047 39.005528 
L 313.843601 44.202274 
L 314.566155 30.699685 
L 315.288709 28.817986 
L 316.011263 23.462511 
L 316.733818 32.43047 
L 317.456372 24.944864 
L 318.178926 25.300889 
L 318.90148 25.465556 
L 319.624034 26.562888 
L 320.346589 30.98018 
L 321.069143 25.714132 
L 321.791697 28.335264 
L 322.514251 31.610021 
L 323.236805 33.342586 
L 323.95936 23.629235 
L 324.681914 30.649746 
L 325.404468 24.116942 
L 326.127022 22.750325 
L 327.572131 36.723385 
L 328.294685 27.601682 
L 329.017239 39.398511 
L 329.739793 25.477618 
L 330.462347 27.43775 
L 331.184902 30.138027 
L 331.907456 24.870245 
L 332.63001 25.874045 
L 333.352564 24.911928 
L 334.075118 22.265129 
L 334.797673 30.827419 
L 335.520227 26.452811 
L 336.242781 36.091118 
L 336.965335 59.198398 
L 337.687889 29.541164 
L 338.410444 27.413947 
L 339.132998 23.417873 
L 339.855552 26.392796 
L 340.578106 32.042012 
L 341.30066 31.357345 
L 342.023215 19.157951 
L 343.468323 44.880581 
L 344.190877 38.310842 
L 344.913431 39.86033 
L 345.635986 31.38006 
L 346.35854 31.769017 
L 347.081094 29.474584 
L 348.526202 23.255293 
L 349.248757 32.273289 
L 349.971311 34.406923 
L 350.693865 35.206574 
L 351.416419 29.912545 
L 352.138973 51.293932 
L 352.861528 38.797889 
L 353.584082 28.302432 
L 354.306636 33.534449 
L 355.02919 35.168129 
L 355.751744 31.786292 
L 356.474299 24.965865 
L 357.919407 32.541071 
L 358.641961 21.334478 
L 359.364515 32.062906 
L 360.08707 22.677765 
L 360.809624 32.918585 
L 361.532178 130.143039 
L 362.254732 27.49563 
L 362.977286 30.124524 
L 363.699841 44.085425 
L 364.422395 33.633809 
L 365.144949 20.583257 
L 365.867503 43.411212 
L 366.590057 26.484476 
L 367.312612 24.001277 
L 368.035166 23.277859 
L 368.75772 26.257588 
L 369.480274 32.19401 
L 370.202828 24.648784 
L 370.925383 31.800142 
L 371.647937 32.936566 
L 372.370491 25.458652 
L 373.093045 32.665012 
L 373.815599 26.958485 
L 374.538154 24.167149 
L 375.260708 33.561884 
L 375.983262 25.483246 
L 376.705816 30.35548 
L 377.42837 26.146713 
L 378.150925 33.793423 
L 378.873479 27.650515 
L 380.318587 19.170629 
L 381.041141 31.117587 
L 381.763696 36.154355 
L 382.48625 23.716594 
L 383.208804 26.916046 
L 383.931358 29.079944 
L 384.653912 35.6163 
L 385.376467 40.183606 
L 386.099021 40.493273 
L 386.821575 31.547661 
L 387.544129 39.290983 
L 388.266683 25.122468 
L 388.989238 27.577312 
L 389.711792 43.595696 
L 390.434346 25.777948 
L 391.1569 21.426461 
L 391.879454 32.528909 
L 392.602009 26.240137 
L 393.324563 40.174673 
L 394.047117 31.339907 
L 394.769671 39.864657 
L 395.492225 20.06042 
L 396.21478 82.22748 
L 396.937334 28.269556 
L 397.659888 21.388561 
L 398.382442 35.728145 
L 399.104996 33.8472 
L 399.827551 27.159946 
L 400.550105 43.802623 
L 401.272659 37.631165 
L 401.995213 42.188273 
L 402.717767 28.481081 
L 403.440322 30.302633 
L 404.162876 63.862865 
L 404.88543 28.685816 
L 405.607984 25.401542 
L 406.330538 22.682632 
L 407.053093 21.287728 
L 407.775647 27.465858 
L 408.498201 60.15462 
L 409.220755 28.727667 
L 409.943309 29.80304 
L 410.665864 57.542046 
L 411.388418 39.562306 
L 412.110972 30.66637 
L 412.833526 36.518827 
L 413.55608 36.690522 
L 414.278635 44.94055 
L 415.001189 27.021396 
L 415.723743 20.019303 
L 416.446297 27.84261 
L 417.168851 32.745428 
L 417.891406 34.294453 
L 418.61396 22.819567 
L 419.336514 65.77789 
L 420.059068 27.914992 
L 420.781622 31.861486 
L 421.504177 25.867308 
L 422.226731 34.367024 
L 422.949285 21.64844 
L 423.671839 27.824572 
L 424.394393 74.002685 
L 425.116948 75.783804 
L 425.839502 22.398379 
L 426.562056 29.63863 
L 427.28461 24.888391 
L 428.007164 47.216304 
L 428.729719 24.558398 
L 429.452273 40.60245 
L 429.452273 40.60245 
" style="fill:none;stroke:#ffa500;stroke-linecap:square;stroke-width:1.5;"/>
   </g>
   <g id="patch_3">
    <path d="M 50.87 135.70604 
L 50.87 13.32 
" style="fill:none;stroke:#000000;stroke-linecap:square;stroke-linejoin:miter;stroke-width:0.8;"/>
   </g>
   <g id="patch_4">
    <path d="M 447.48 135.70604 
L 447.48 13.32 
" style="fill:none;stroke:#000000;stroke-linecap:square;stroke-linejoin:miter;stroke-width:0.8;"/>
   </g>
   <g id="patch_5">
    <path d="M 50.87 135.70604 
L 447.48 135.70604 
" style="fill:none;stroke:#000000;stroke-linecap:square;stroke-linejoin:miter;stroke-width:0.8;"/>
   </g>
   <g id="patch_6">
    <path d="M 50.87 13.32 
L 447.48 13.32 
" style="fill:none;stroke:#000000;stroke-linecap:square;stroke-linejoin:miter;stroke-width:0.8;"/>
   </g>
   <g id="legend_1">
    <g id="patch_7">
     <path d="M 57.87 35.998125 
L 130.104375 35.998125 
Q 132.104375 35.998125 132.104375 33.998125 
L 132.104375 20.32 
Q 132.104375 18.32 130.104375 18.32 
L 57.87 18.32 
Q 55.87 18.32 55.87 20.32 
L 55.87 33.998125 
Q 55.87 35.998125 57.87 35.998125 
z
" style="fill:#ffffff;opacity:0.8;stroke:#cccccc;stroke-linejoin:miter;"/>
    </g>
    <g id="line2d_24">
     <path d="M 59.87 26.418438 
L 79.87 26.418438 
" style="fill:none;stroke:#ffa500;stroke-linecap:square;stroke-width:1.5;"/>
    </g>
    <g id="line2d_25"/>
    <g id="text_14">
     <!-- rewards -->
     <defs>
      <path d="M 4.203125 54.6875 
L 13.1875 54.6875 
L 24.421875 12.015625 
L 35.59375 54.6875 
L 46.1875 54.6875 
L 57.421875 12.015625 
L 68.609375 54.6875 
L 77.59375 54.6875 
L 63.28125 0 
L 52.6875 0 
L 40.921875 44.828125 
L 29.109375 0 
L 18.5 0 
z
" id="DejaVuSans-119"/>
     </defs>
     <g transform="translate(87.87 29.918438)scale(0.1 -0.1)">
      <use xlink:href="#DejaVuSans-114"/>
      <use x="41.082031" xlink:href="#DejaVuSans-101"/>
      <use x="102.605469" xlink:href="#DejaVuSans-119"/>
      <use x="184.392578" xlink:href="#DejaVuSans-97"/>
      <use x="245.671875" xlink:href="#DejaVuSans-114"/>
      <use x="286.769531" xlink:href="#DejaVuSans-100"/>
      <use x="350.246094" xlink:href="#DejaVuSans-115"/>
     </g>
    </g>
   </g>
   <g id="legend_2">
    <g id="patch_8">
     <path d="M 57.87 35.998125 
L 130.104375 35.998125 
Q 132.104375 35.998125 132.104375 33.998125 
L 132.104375 20.32 
Q 132.104375 18.32 130.104375 18.32 
L 57.87 18.32 
Q 55.87 18.32 55.87 20.32 
L 55.87 33.998125 
Q 55.87 35.998125 57.87 35.998125 
z
" style="fill:#ffffff;opacity:0.8;stroke:#cccccc;stroke-linejoin:miter;"/>
    </g>
    <g id="line2d_26">
     <path d="M 59.87 26.418438 
L 79.87 26.418438 
" style="fill:none;stroke:#ffa500;stroke-linecap:square;stroke-width:1.5;"/>
    </g>
    <g id="line2d_27"/>
    <g id="text_15">
     <!-- rewards -->
     <g transform="translate(87.87 29.918438)scale(0.1 -0.1)">
      <use xlink:href="#DejaVuSans-114"/>
      <use x="41.082031" xlink:href="#DejaVuSans-101"/>
      <use x="102.605469" xlink:href="#DejaVuSans-119"/>
      <use x="184.392578" xlink:href="#DejaVuSans-97"/>
      <use x="245.671875" xlink:href="#DejaVuSans-114"/>
      <use x="286.769531" xlink:href="#DejaVuSans-100"/>
      <use x="350.246094" xlink:href="#DejaVuSans-115"/>
     </g>
    </g>
   </g>
  </g>
  <g id="axes_2">
   <g id="patch_9">
    <path d="M 50.87 303.64 
L 447.48 303.64 
L 447.48 181.25396 
L 50.87 181.25396 
z
" style="fill:#ffffff;"/>
   </g>
   <g id="matplotlib.axis_3">
    <g id="xtick_7">
     <g id="line2d_28">
      <path clip-path="url(#p61e745af35)" d="M 68.897727 303.64 
L 68.897727 181.25396 
" style="fill:none;stroke:#b0b0b0;stroke-linecap:square;stroke-width:0.8;"/>
     </g>
     <g id="line2d_29">
      <g>
       <use style="stroke:#000000;stroke-width:0.8;" x="68.897727" xlink:href="#ma90ec1a839" y="303.64"/>
      </g>
     </g>
     <g id="text_16">
      <!-- 0 -->
      <g transform="translate(65.716477 318.238437)scale(0.1 -0.1)">
       <use xlink:href="#DejaVuSans-48"/>
      </g>
     </g>
    </g>
    <g id="xtick_8">
     <g id="line2d_30">
      <path clip-path="url(#p61e745af35)" d="M 141.153147 303.64 
L 141.153147 181.25396 
" style="fill:none;stroke:#b0b0b0;stroke-linecap:square;stroke-width:0.8;"/>
     </g>
     <g id="line2d_31">
      <g>
       <use style="stroke:#000000;stroke-width:0.8;" x="141.153147" xlink:href="#ma90ec1a839" y="303.64"/>
      </g>
     </g>
     <g id="text_17">
      <!-- 100 -->
      <g transform="translate(131.609397 318.238437)scale(0.1 -0.1)">
       <use xlink:href="#DejaVuSans-49"/>
       <use x="63.623047" xlink:href="#DejaVuSans-48"/>
       <use x="127.246094" xlink:href="#DejaVuSans-48"/>
      </g>
     </g>
    </g>
    <g id="xtick_9">
     <g id="line2d_32">
      <path clip-path="url(#p61e745af35)" d="M 213.408567 303.64 
L 213.408567 181.25396 
" style="fill:none;stroke:#b0b0b0;stroke-linecap:square;stroke-width:0.8;"/>
     </g>
     <g id="line2d_33">
      <g>
       <use style="stroke:#000000;stroke-width:0.8;" x="213.408567" xlink:href="#ma90ec1a839" y="303.64"/>
      </g>
     </g>
     <g id="text_18">
      <!-- 200 -->
      <g transform="translate(203.864817 318.238437)scale(0.1 -0.1)">
       <use xlink:href="#DejaVuSans-50"/>
       <use x="63.623047" xlink:href="#DejaVuSans-48"/>
       <use x="127.246094" xlink:href="#DejaVuSans-48"/>
      </g>
     </g>
    </g>
    <g id="xtick_10">
     <g id="line2d_34">
      <path clip-path="url(#p61e745af35)" d="M 285.663987 303.64 
L 285.663987 181.25396 
" style="fill:none;stroke:#b0b0b0;stroke-linecap:square;stroke-width:0.8;"/>
     </g>
     <g id="line2d_35">
      <g>
       <use style="stroke:#000000;stroke-width:0.8;" x="285.663987" xlink:href="#ma90ec1a839" y="303.64"/>
      </g>
     </g>
     <g id="text_19">
      <!-- 300 -->
      <g transform="translate(276.120237 318.238437)scale(0.1 -0.1)">
       <use xlink:href="#DejaVuSans-51"/>
       <use x="63.623047" xlink:href="#DejaVuSans-48"/>
       <use x="127.246094" xlink:href="#DejaVuSans-48"/>
      </g>
     </g>
    </g>
    <g id="xtick_11">
     <g id="line2d_36">
      <path clip-path="url(#p61e745af35)" d="M 357.919407 303.64 
L 357.919407 181.25396 
" style="fill:none;stroke:#b0b0b0;stroke-linecap:square;stroke-width:0.8;"/>
     </g>
     <g id="line2d_37">
      <g>
       <use style="stroke:#000000;stroke-width:0.8;" x="357.919407" xlink:href="#ma90ec1a839" y="303.64"/>
      </g>
     </g>
     <g id="text_20">
      <!-- 400 -->
      <g transform="translate(348.375657 318.238437)scale(0.1 -0.1)">
       <use xlink:href="#DejaVuSans-52"/>
       <use x="63.623047" xlink:href="#DejaVuSans-48"/>
       <use x="127.246094" xlink:href="#DejaVuSans-48"/>
      </g>
     </g>
    </g>
    <g id="xtick_12">
     <g id="line2d_38">
      <path clip-path="url(#p61e745af35)" d="M 430.174827 303.64 
L 430.174827 181.25396 
" style="fill:none;stroke:#b0b0b0;stroke-linecap:square;stroke-width:0.8;"/>
     </g>
     <g id="line2d_39">
      <g>
       <use style="stroke:#000000;stroke-width:0.8;" x="430.174827" xlink:href="#ma90ec1a839" y="303.64"/>
      </g>
     </g>
     <g id="text_21">
      <!-- 500 -->
      <g transform="translate(420.631077 318.238437)scale(0.1 -0.1)">
       <use xlink:href="#DejaVuSans-53"/>
       <use x="63.623047" xlink:href="#DejaVuSans-48"/>
       <use x="127.246094" xlink:href="#DejaVuSans-48"/>
      </g>
     </g>
    </g>
    <g id="text_22">
     <!-- episodes -->
     <g transform="translate(227.015625 331.916562)scale(0.1 -0.1)">
      <use xlink:href="#DejaVuSans-101"/>
      <use x="61.523438" xlink:href="#DejaVuSans-112"/>
      <use x="125" xlink:href="#DejaVuSans-105"/>
      <use x="152.783203" xlink:href="#DejaVuSans-115"/>
      <use x="204.882812" xlink:href="#DejaVuSans-111"/>
      <use x="266.064453" xlink:href="#DejaVuSans-100"/>
      <use x="329.541016" xlink:href="#DejaVuSans-101"/>
      <use x="391.064453" xlink:href="#DejaVuSans-115"/>
     </g>
    </g>
   </g>
   <g id="matplotlib.axis_4">
    <g id="ytick_6">
     <g id="line2d_40">
      <path clip-path="url(#p61e745af35)" d="M 50.87 278.348215 
L 447.48 278.348215 
" style="fill:none;stroke:#b0b0b0;stroke-linecap:square;stroke-width:0.8;"/>
     </g>
     <g id="line2d_41">
      <g>
       <use style="stroke:#000000;stroke-width:0.8;" x="50.87" xlink:href="#m06de74c2ef" y="278.348215"/>
      </g>
     </g>
     <g id="text_23">
      <!-- 40 -->
      <g transform="translate(31.145 282.147433)scale(0.1 -0.1)">
       <use xlink:href="#DejaVuSans-52"/>
       <use x="63.623047" xlink:href="#DejaVuSans-48"/>
      </g>
     </g>
    </g>
    <g id="ytick_7">
     <g id="line2d_42">
      <path clip-path="url(#p61e745af35)" d="M 50.87 246.114656 
L 447.48 246.114656 
" style="fill:none;stroke:#b0b0b0;stroke-linecap:square;stroke-width:0.8;"/>
     </g>
     <g id="line2d_43">
      <g>
       <use style="stroke:#000000;stroke-width:0.8;" x="50.87" xlink:href="#m06de74c2ef" y="246.114656"/>
      </g>
     </g>
     <g id="text_24">
      <!-- 60 -->
      <defs>
       <path d="M 33.015625 40.375 
Q 26.375 40.375 22.484375 35.828125 
Q 18.609375 31.296875 18.609375 23.390625 
Q 18.609375 15.53125 22.484375 10.953125 
Q 26.375 6.390625 33.015625 6.390625 
Q 39.65625 6.390625 43.53125 10.953125 
Q 47.40625 15.53125 47.40625 23.390625 
Q 47.40625 31.296875 43.53125 35.828125 
Q 39.65625 40.375 33.015625 40.375 
z
M 52.59375 71.296875 
L 52.59375 62.3125 
Q 48.875 64.0625 45.09375 64.984375 
Q 41.3125 65.921875 37.59375 65.921875 
Q 27.828125 65.921875 22.671875 59.328125 
Q 17.53125 52.734375 16.796875 39.40625 
Q 19.671875 43.65625 24.015625 45.921875 
Q 28.375 48.1875 33.59375 48.1875 
Q 44.578125 48.1875 50.953125 41.515625 
Q 57.328125 34.859375 57.328125 23.390625 
Q 57.328125 12.15625 50.6875 5.359375 
Q 44.046875 -1.421875 33.015625 -1.421875 
Q 20.359375 -1.421875 13.671875 8.265625 
Q 6.984375 17.96875 6.984375 36.375 
Q 6.984375 53.65625 15.1875 63.9375 
Q 23.390625 74.21875 37.203125 74.21875 
Q 40.921875 74.21875 44.703125 73.484375 
Q 48.484375 72.75 52.59375 71.296875 
z
" id="DejaVuSans-54"/>
      </defs>
      <g transform="translate(31.145 249.913875)scale(0.1 -0.1)">
       <use xlink:href="#DejaVuSans-54"/>
       <use x="63.623047" xlink:href="#DejaVuSans-48"/>
      </g>
     </g>
    </g>
    <g id="ytick_8">
     <g id="line2d_44">
      <path clip-path="url(#p61e745af35)" d="M 50.87 213.881098 
L 447.48 213.881098 
" style="fill:none;stroke:#b0b0b0;stroke-linecap:square;stroke-width:0.8;"/>
     </g>
     <g id="line2d_45">
      <g>
       <use style="stroke:#000000;stroke-width:0.8;" x="50.87" xlink:href="#m06de74c2ef" y="213.881098"/>
      </g>
     </g>
     <g id="text_25">
      <!-- 80 -->
      <defs>
       <path d="M 31.78125 34.625 
Q 24.75 34.625 20.71875 30.859375 
Q 16.703125 27.09375 16.703125 20.515625 
Q 16.703125 13.921875 20.71875 10.15625 
Q 24.75 6.390625 31.78125 6.390625 
Q 38.8125 6.390625 42.859375 10.171875 
Q 46.921875 13.96875 46.921875 20.515625 
Q 46.921875 27.09375 42.890625 30.859375 
Q 38.875 34.625 31.78125 34.625 
z
M 21.921875 38.8125 
Q 15.578125 40.375 12.03125 44.71875 
Q 8.5 49.078125 8.5 55.328125 
Q 8.5 64.0625 14.71875 69.140625 
Q 20.953125 74.21875 31.78125 74.21875 
Q 42.671875 74.21875 48.875 69.140625 
Q 55.078125 64.0625 55.078125 55.328125 
Q 55.078125 49.078125 51.53125 44.71875 
Q 48 40.375 41.703125 38.8125 
Q 48.828125 37.15625 52.796875 32.3125 
Q 56.78125 27.484375 56.78125 20.515625 
Q 56.78125 9.90625 50.3125 4.234375 
Q 43.84375 -1.421875 31.78125 -1.421875 
Q 19.734375 -1.421875 13.25 4.234375 
Q 6.78125 9.90625 6.78125 20.515625 
Q 6.78125 27.484375 10.78125 32.3125 
Q 14.796875 37.15625 21.921875 38.8125 
z
M 18.3125 54.390625 
Q 18.3125 48.734375 21.84375 45.5625 
Q 25.390625 42.390625 31.78125 42.390625 
Q 38.140625 42.390625 41.71875 45.5625 
Q 45.3125 48.734375 45.3125 54.390625 
Q 45.3125 60.0625 41.71875 63.234375 
Q 38.140625 66.40625 31.78125 66.40625 
Q 25.390625 66.40625 21.84375 63.234375 
Q 18.3125 60.0625 18.3125 54.390625 
z
" id="DejaVuSans-56"/>
      </defs>
      <g transform="translate(31.145 217.680316)scale(0.1 -0.1)">
       <use xlink:href="#DejaVuSans-56"/>
       <use x="63.623047" xlink:href="#DejaVuSans-48"/>
      </g>
     </g>
    </g>
    <g id="ytick_9">
     <g id="line2d_46">
      <path clip-path="url(#p61e745af35)" d="M 50.87 181.647539 
L 447.48 181.647539 
" style="fill:none;stroke:#b0b0b0;stroke-linecap:square;stroke-width:0.8;"/>
     </g>
     <g id="line2d_47">
      <g>
       <use style="stroke:#000000;stroke-width:0.8;" x="50.87" xlink:href="#m06de74c2ef" y="181.647539"/>
      </g>
     </g>
     <g id="text_26">
      <!-- 100 -->
      <g transform="translate(24.7825 185.446758)scale(0.1 -0.1)">
       <use xlink:href="#DejaVuSans-49"/>
       <use x="63.623047" xlink:href="#DejaVuSans-48"/>
       <use x="127.246094" xlink:href="#DejaVuSans-48"/>
      </g>
     </g>
    </g>
    <g id="text_27">
     <!-- cost metric -->
     <g transform="translate(18.702813 270.510261)rotate(-90)scale(0.1 -0.1)">
      <use xlink:href="#DejaVuSans-99"/>
      <use x="54.980469" xlink:href="#DejaVuSans-111"/>
      <use x="116.162109" xlink:href="#DejaVuSans-115"/>
      <use x="168.261719" xlink:href="#DejaVuSans-116"/>
      <use x="207.470703" xlink:href="#DejaVuSans-32"/>
      <use x="239.257812" xlink:href="#DejaVuSans-109"/>
      <use x="336.669922" xlink:href="#DejaVuSans-101"/>
      <use x="398.193359" xlink:href="#DejaVuSans-116"/>
      <use x="437.402344" xlink:href="#DejaVuSans-114"/>
      <use x="478.515625" xlink:href="#DejaVuSans-105"/>
      <use x="506.298828" xlink:href="#DejaVuSans-99"/>
     </g>
    </g>
   </g>
   <g id="line2d_48">
    <path clip-path="url(#p61e745af35)" d="M 68.897727 194.362944 
L 69.620281 227.284072 
L 70.342836 228.618172 
L 71.06539 197.374145 
L 71.787944 202.211615 
L 72.510498 225.864701 
L 73.233052 202.580651 
L 73.955607 205.120223 
L 74.678161 212.475239 
L 75.400715 215.87852 
L 76.123269 229.266377 
L 76.845823 204.682151 
L 77.568378 229.185233 
L 78.290932 227.481405 
L 79.013486 250.521442 
L 79.73604 233.910895 
L 80.458594 220.401225 
L 81.181149 222.834526 
L 81.903703 206.451257 
L 82.626257 209.673212 
L 83.348811 209.597192 
L 84.071365 189.883288 
L 84.79392 238.320778 
L 85.516474 238.949126 
L 86.239028 246.207254 
L 86.961582 254.593138 
L 87.684136 225.842675 
L 88.406691 238.0026 
L 89.129245 243.605987 
L 89.851799 253.482695 
L 90.574353 210.117869 
L 91.296907 252.328232 
L 92.019462 230.885228 
L 92.742016 238.731823 
L 93.46457 243.686194 
L 94.187124 246.467392 
L 94.909678 243.685264 
L 95.632233 238.962458 
L 96.354787 252.011139 
L 97.077341 239.569599 
L 97.799895 241.74386 
L 98.522449 252.018204 
L 99.245004 245.985109 
L 99.967558 227.916975 
L 100.690112 234.756417 
L 101.412666 232.126691 
L 102.13522 215.566017 
L 102.857775 251.17702 
L 103.580329 255.096341 
L 104.302883 250.083842 
L 105.025437 220.910862 
L 105.747991 238.862521 
L 106.470546 238.225678 
L 107.1931 249.985569 
L 107.915654 250.675376 
L 108.638208 244.539207 
L 109.360762 242.422943 
L 110.083317 239.715269 
L 110.805871 234.287931 
L 111.528425 250.841859 
L 112.250979 249.271379 
L 112.973533 247.114936 
L 113.696088 245.918918 
L 114.418642 221.373933 
L 115.141196 224.0687 
L 115.86375 237.286119 
L 116.586304 202.134362 
L 117.308859 247.08931 
L 118.031413 232.4595 
L 118.753967 246.422628 
L 119.476521 248.943963 
L 120.199075 217.047508 
L 120.92163 206.695389 
L 121.644184 230.793005 
L 122.366738 214.183869 
L 123.089292 215.351078 
L 123.811846 236.404422 
L 124.534401 253.376528 
L 125.256955 263.363082 
L 125.979509 246.159508 
L 126.702063 198.19413 
L 127.424617 212.463708 
L 128.147172 230.629182 
L 128.869726 218.313243 
L 129.59228 243.241965 
L 130.314834 229.647894 
L 131.037388 229.235531 
L 131.759943 216.083664 
L 132.482497 219.382257 
L 133.205051 243.080665 
L 133.927605 229.131917 
L 134.650159 256.278731 
L 135.372714 233.877869 
L 136.095268 187.369579 
L 136.817822 229.818339 
L 137.540376 255.236177 
L 138.26293 236.36133 
L 138.985485 249.729125 
L 139.708039 213.343283 
L 140.430593 248.849446 
L 141.153147 251.380721 
L 141.875701 234.304337 
L 142.598256 205.709521 
L 143.32081 244.507541 
L 144.043364 231.103011 
L 145.488472 246.25483 
L 146.211027 197.315729 
L 146.933581 238.181142 
L 147.656135 227.275351 
L 148.378689 248.260247 
L 149.101243 236.532507 
L 149.823798 228.304511 
L 150.546352 250.475174 
L 151.268906 240.807808 
L 151.99146 246.99723 
L 152.714014 227.700309 
L 153.436569 243.268749 
L 154.159123 253.633686 
L 154.881677 278.8507 
L 155.604231 221.475399 
L 156.326785 237.629373 
L 157.771894 219.434459 
L 158.494448 247.289864 
L 159.217002 239.983441 
L 159.939556 223.734497 
L 160.662111 231.836338 
L 161.384665 224.239358 
L 162.107219 233.731763 
L 162.829773 224.376473 
L 163.552327 219.550581 
L 164.274882 256.675338 
L 165.71999 207.456988 
L 166.442544 246.86222 
L 167.165098 233.807514 
L 167.887653 265.568996 
L 169.332761 216.385633 
L 170.055315 276.189003 
L 170.777869 235.460757 
L 171.500424 250.053752 
L 172.222978 248.497749 
L 172.945532 249.01269 
L 173.668086 213.027153 
L 174.39064 217.970884 
L 175.113195 216.744068 
L 175.835749 240.79344 
L 176.558303 241.836033 
L 177.280857 236.336725 
L 178.003411 238.94529 
L 178.725966 216.273809 
L 179.44852 223.882357 
L 180.171074 217.035107 
L 180.893628 247.364387 
L 181.616182 196.053748 
L 182.338737 272.105056 
L 183.061291 192.940394 
L 183.783845 186.816961 
L 184.506399 241.794261 
L 185.228953 239.214171 
L 185.951508 237.872457 
L 186.674062 237.140776 
L 187.396616 224.01938 
L 188.11917 220.007273 
L 188.841724 243.03113 
L 189.564279 237.559271 
L 190.286833 241.48212 
L 191.009387 234.802673 
L 191.731941 230.448895 
L 192.454495 212.967003 
L 193.17705 235.904574 
L 193.899604 204.853222 
L 194.622158 249.284194 
L 195.344712 192.619052 
L 196.067266 234.765997 
L 196.789821 214.333444 
L 197.512375 248.216144 
L 198.234929 233.708196 
L 198.957483 240.066585 
L 199.680037 217.743138 
L 200.402592 252.659556 
L 201.125146 261.974653 
L 201.8477 231.792971 
L 202.570254 227.675797 
L 203.292808 240.215644 
L 204.015363 244.422821 
L 204.737917 215.039462 
L 205.460471 235.593866 
L 206.183025 227.742376 
L 206.905579 217.496761 
L 207.628134 232.638439 
L 208.350688 227.46308 
L 209.073242 201.072689 
L 209.795796 195.630301 
L 211.240905 244.508043 
L 211.963459 237.839764 
L 212.686013 236.943848 
L 213.408567 207.538071 
L 214.131121 232.283983 
L 214.853676 216.205853 
L 215.57623 210.387927 
L 216.298784 269.833603 
L 217.021338 230.101528 
L 217.743892 230.26689 
L 218.466447 243.428046 
L 219.189001 226.925184 
L 219.911555 230.435019 
L 220.634109 255.340128 
L 221.356663 222.911397 
L 222.079218 205.965587 
L 222.801772 247.715836 
L 223.524326 251.328069 
L 224.24688 228.719185 
L 224.969434 222.567755 
L 225.691989 268.881284 
L 226.414543 214.80369 
L 227.137097 222.326178 
L 227.859651 234.117277 
L 228.582205 205.629572 
L 229.30476 238.700496 
L 230.027314 232.531595 
L 231.472422 227.938814 
L 232.194976 229.814887 
L 232.917531 251.640518 
L 233.640085 248.703304 
L 234.362639 247.880713 
L 235.085193 258.204309 
L 235.807747 236.295168 
L 236.530302 261.606876 
L 237.252856 245.96544 
L 237.97541 248.102441 
L 238.697964 227.794548 
L 239.420518 238.927047 
L 240.143073 225.479552 
L 240.865627 232.416776 
L 242.310735 217.790016 
L 243.033289 239.810355 
L 243.755844 231.141663 
L 244.478398 237.666777 
L 245.200952 218.099483 
L 245.923506 240.793935 
L 246.64606 239.490043 
L 247.368615 241.754341 
L 248.091169 216.677639 
L 248.813723 221.647856 
L 249.536277 252.926776 
L 250.258831 217.720535 
L 250.981385 229.882503 
L 251.70394 193.11974 
L 252.426494 232.842971 
L 253.149048 232.914346 
L 253.871602 243.312421 
L 254.594156 242.718224 
L 255.316711 245.576142 
L 256.039265 227.431165 
L 257.484373 260.18264 
L 258.206927 204.12818 
L 258.929482 237.878786 
L 259.652036 217.807741 
L 261.097144 223.419671 
L 261.819698 239.345861 
L 262.542253 260.874969 
L 263.264807 230.98772 
L 263.987361 249.245834 
L 264.709915 221.914962 
L 265.432469 248.72078 
L 266.155024 228.560142 
L 266.877578 235.202119 
L 267.600132 240.389889 
L 268.322686 264.740105 
L 269.04524 225.632221 
L 269.767795 228.596327 
L 270.490349 269.429841 
L 271.212903 240.037654 
L 271.935457 215.846064 
L 272.658011 235.345253 
L 273.380566 206.44458 
L 274.10312 227.501763 
L 274.825674 239.042177 
L 275.548228 238.999877 
L 276.270782 205.552978 
L 276.993337 253.473259 
L 277.715891 238.54734 
L 278.438445 226.874451 
L 279.160999 244.278833 
L 279.883553 219.06533 
L 280.606108 269.412605 
L 281.328662 231.225825 
L 282.051216 211.539268 
L 282.77377 237.691314 
L 283.496324 235.85962 
L 284.218879 247.652887 
L 284.941433 248.318987 
L 285.663987 249.492095 
L 286.386541 271.230816 
L 287.109095 233.498608 
L 287.83165 269.01072 
L 288.554204 230.612179 
L 289.276758 223.933892 
L 289.999312 236.20132 
L 290.721866 221.192437 
L 291.444421 232.717183 
L 292.166975 224.909896 
L 292.889529 260.6212 
L 293.612083 259.747506 
L 295.057192 233.566994 
L 295.779746 250.985367 
L 296.5023 243.610737 
L 297.224854 240.396222 
L 297.947408 257.862956 
L 298.669963 225.077236 
L 299.392517 210.61781 
L 300.115071 220.371851 
L 300.837625 212.855937 
L 301.560179 264.233707 
L 302.282734 228.716665 
L 303.005288 270.5972 
L 303.727842 242.518796 
L 304.450396 253.836321 
L 305.17295 223.45133 
L 305.895505 259.447392 
L 306.618059 226.89457 
L 307.340613 235.565849 
L 308.063167 258.697804 
L 308.785721 241.26855 
L 309.508276 229.333824 
L 310.23083 260.256584 
L 310.953384 218.716262 
L 311.675938 235.74992 
L 312.398492 225.567247 
L 313.121047 235.47143 
L 313.843601 251.031114 
L 314.566155 254.887414 
L 315.288709 235.817874 
L 316.011263 222.709064 
L 316.733818 224.978013 
L 317.456372 246.592814 
L 318.178926 264.273023 
L 318.90148 242.379953 
L 319.624034 231.166775 
L 320.346589 245.362653 
L 321.069143 236.114711 
L 321.791697 239.459684 
L 322.514251 225.095571 
L 323.236805 221.919427 
L 324.681914 244.077262 
L 325.404468 259.052993 
L 326.127022 218.076266 
L 326.849576 225.559459 
L 327.572131 242.240929 
L 328.294685 224.807831 
L 329.017239 234.607746 
L 329.739793 248.508546 
L 330.462347 230.168603 
L 331.184902 215.444285 
L 331.907456 285.013953 
L 332.63001 244.431198 
L 333.352564 233.826298 
L 334.075118 242.371069 
L 334.797673 259.225134 
L 335.520227 210.200509 
L 336.965335 271.518474 
L 337.687889 238.612433 
L 338.410444 228.704465 
L 339.132998 245.507962 
L 339.855552 232.751473 
L 340.578106 253.92912 
L 341.30066 225.432986 
L 342.023215 231.603894 
L 342.745769 269.603307 
L 343.468323 280.193876 
L 344.190877 219.807273 
L 344.913431 230.930542 
L 345.635986 229.635354 
L 346.35854 244.746283 
L 347.081094 228.769963 
L 347.803648 239.016356 
L 348.526202 246.988336 
L 349.248757 244.288566 
L 349.971311 214.758056 
L 350.693865 248.656129 
L 352.138973 213.71141 
L 353.584082 281.209562 
L 354.306636 234.15832 
L 355.02919 237.803183 
L 355.751744 252.517281 
L 356.474299 247.096303 
L 357.196853 224.817419 
L 357.919407 251.897276 
L 359.364515 239.125022 
L 360.08707 210.526232 
L 360.809624 238.247545 
L 361.532178 189.258461 
L 362.254732 298.076998 
L 362.977286 242.520225 
L 363.699841 217.530298 
L 364.422395 265.274794 
L 365.867503 225.033925 
L 366.590057 216.338115 
L 367.312612 238.062617 
L 368.035166 237.045516 
L 368.75772 243.922837 
L 369.480274 244.735408 
L 370.202828 229.211433 
L 370.925383 208.995787 
L 371.647937 253.303982 
L 372.370491 228.387404 
L 373.815599 251.297695 
L 374.538154 224.276755 
L 375.260708 247.124374 
L 375.983262 252.713299 
L 376.705816 211.247723 
L 377.42837 242.148145 
L 378.150925 230.529372 
L 378.873479 246.511099 
L 379.596033 223.226955 
L 380.318587 258.955299 
L 381.041141 250.606134 
L 381.763696 230.582474 
L 382.48625 255.275109 
L 383.208804 252.71681 
L 383.931358 211.623896 
L 384.653912 248.353807 
L 385.376467 262.109299 
L 386.099021 214.685777 
L 386.821575 243.088018 
L 387.544129 296.653256 
L 388.266683 266.399109 
L 388.989238 228.603449 
L 389.711792 252.917109 
L 390.434346 238.543674 
L 391.1569 232.687231 
L 391.879454 242.892678 
L 393.324563 209.963701 
L 394.047117 234.778531 
L 394.769671 254.451057 
L 395.492225 245.937489 
L 396.21478 198.256037 
L 397.659888 255.970208 
L 399.104996 242.623801 
L 399.827551 255.318847 
L 400.550105 229.409822 
L 401.272659 279.413597 
L 401.995213 234.540351 
L 402.717767 240.945235 
L 403.440322 236.643843 
L 404.162876 227.235166 
L 404.88543 237.698459 
L 405.607984 207.861377 
L 406.330538 216.537795 
L 407.053093 205.867309 
L 407.775647 234.72229 
L 408.498201 272.790588 
L 409.220755 236.684538 
L 409.943309 232.333048 
L 410.665864 249.714892 
L 411.388418 247.337283 
L 412.110972 251.995894 
L 412.833526 217.336196 
L 413.55608 266.229696 
L 414.278635 225.688252 
L 415.001189 275.717318 
L 415.723743 242.063896 
L 416.446297 238.245502 
L 417.168851 223.324423 
L 417.891406 222.722433 
L 418.61396 232.922078 
L 419.336514 203.184384 
L 420.059068 242.642917 
L 420.781622 258.06887 
L 421.504177 239.457011 
L 422.226731 212.956375 
L 422.949285 248.114842 
L 423.671839 220.079469 
L 424.394393 201.837474 
L 425.116948 223.608797 
L 425.839502 234.354384 
L 426.562056 228.816694 
L 427.28461 250.638486 
L 428.007164 216.432831 
L 428.729719 235.61959 
L 429.452273 232.814124 
L 429.452273 232.814124 
" style="fill:none;stroke:#1f77b4;stroke-linecap:square;stroke-width:1.5;"/>
   </g>
   <g id="patch_10">
    <path d="M 50.87 303.64 
L 50.87 181.25396 
" style="fill:none;stroke:#000000;stroke-linecap:square;stroke-linejoin:miter;stroke-width:0.8;"/>
   </g>
   <g id="patch_11">
    <path d="M 447.48 303.64 
L 447.48 181.25396 
" style="fill:none;stroke:#000000;stroke-linecap:square;stroke-linejoin:miter;stroke-width:0.8;"/>
   </g>
   <g id="patch_12">
    <path d="M 50.87 303.64 
L 447.48 303.64 
" style="fill:none;stroke:#000000;stroke-linecap:square;stroke-linejoin:miter;stroke-width:0.8;"/>
   </g>
   <g id="patch_13">
    <path d="M 50.87 181.25396 
L 447.48 181.25396 
" style="fill:none;stroke:#000000;stroke-linecap:square;stroke-linejoin:miter;stroke-width:0.8;"/>
   </g>
   <g id="legend_3">
    <g id="patch_14">
     <path d="M 57.87 203.932085 
L 130.104375 203.932085 
Q 132.104375 203.932085 132.104375 201.932085 
L 132.104375 188.25396 
Q 132.104375 186.25396 130.104375 186.25396 
L 57.87 186.25396 
Q 55.87 186.25396 55.87 188.25396 
L 55.87 201.932085 
Q 55.87 203.932085 57.87 203.932085 
z
" style="fill:#ffffff;opacity:0.8;stroke:#cccccc;stroke-linejoin:miter;"/>
    </g>
    <g id="line2d_49">
     <path d="M 59.87 194.352397 
L 79.87 194.352397 
" style="fill:none;stroke:#1f77b4;stroke-linecap:square;stroke-width:1.5;"/>
    </g>
    <g id="line2d_50"/>
    <g id="text_28">
     <!-- rewards -->
     <g transform="translate(87.87 197.852397)scale(0.1 -0.1)">
      <use xlink:href="#DejaVuSans-114"/>
      <use x="41.082031" xlink:href="#DejaVuSans-101"/>
      <use x="102.605469" xlink:href="#DejaVuSans-119"/>
      <use x="184.392578" xlink:href="#DejaVuSans-97"/>
      <use x="245.671875" xlink:href="#DejaVuSans-114"/>
      <use x="286.769531" xlink:href="#DejaVuSans-100"/>
      <use x="350.246094" xlink:href="#DejaVuSans-115"/>
     </g>
    </g>
   </g>
   <g id="legend_4">
    <g id="patch_15">
     <path d="M 57.87 203.932085 
L 130.104375 203.932085 
Q 132.104375 203.932085 132.104375 201.932085 
L 132.104375 188.25396 
Q 132.104375 186.25396 130.104375 186.25396 
L 57.87 186.25396 
Q 55.87 186.25396 55.87 188.25396 
L 55.87 201.932085 
Q 55.87 203.932085 57.87 203.932085 
z
" style="fill:#ffffff;opacity:0.8;stroke:#cccccc;stroke-linejoin:miter;"/>
    </g>
    <g id="line2d_51">
     <path d="M 59.87 194.352397 
L 79.87 194.352397 
" style="fill:none;stroke:#1f77b4;stroke-linecap:square;stroke-width:1.5;"/>
    </g>
    <g id="line2d_52"/>
    <g id="text_29">
     <!-- rewards -->
     <g transform="translate(87.87 197.852397)scale(0.1 -0.1)">
      <use xlink:href="#DejaVuSans-114"/>
      <use x="41.082031" xlink:href="#DejaVuSans-101"/>
      <use x="102.605469" xlink:href="#DejaVuSans-119"/>
      <use x="184.392578" xlink:href="#DejaVuSans-97"/>
      <use x="245.671875" xlink:href="#DejaVuSans-114"/>
      <use x="286.769531" xlink:href="#DejaVuSans-100"/>
      <use x="350.246094" xlink:href="#DejaVuSans-115"/>
     </g>
    </g>
   </g>
  </g>
 </g>
 <defs>
  <clipPath id="pc5393ccf1b">
   <rect height="122.38604" width="396.61" x="50.87" y="13.32"/>
  </clipPath>
  <clipPath id="p61e745af35">
   <rect height="122.38604" width="396.61" x="50.87" y="181.25396"/>
  </clipPath>
 </defs>
</svg>
